Simulation
nRows=16
nColumns=15
endheader
time  TH_x TH_y TH_z SC_y  SC_z  SC_x  AC_y  AC_z  AC_x  GH_y  GH_z  GH_yy  EL_x  PS_y
1.55  0.000000  0.000000  0.000000  -32.496423501821994  7.31749676591531  27.694889063316555  51.72153087061049  5.308968875626604  -8.282213173959208  23.270635412136613  55.724136980640075  -19.527240746493895  17.929512286045338  0.000000
1.581  0.000000  0.000000  0.000000  -32.851447824485525  7.6140180605769485  28.174911378592924  51.7221680623373  5.439882452657564  -7.940877085125074  23.054765054921727  56.29657079496353  -19.530222255326866  17.90230201751338  0.000000
1.612  0.000000  0.000000  0.000000  -33.17544764544307  7.8664008682835425  28.5202443491013  51.74950160381694  5.574415551841568  -7.581903036459574  22.816291310525447  56.828345759572414  -19.483472017225317  17.887452227561965  0.000000
1.643  0.000000  0.000000  0.000000  -33.46066519390009  8.061631831118342  28.751423357042512  51.79971484380117  5.7165580669332  -7.23556795312888  22.57030668664008  57.29954222800811  -19.41594235290868  17.89062286388483  0.000000
1.674  0.000000  0.000000  0.000000  -33.711184792685806  8.202110347244673  28.897942365581418  51.86236397895288  5.862693420001187  -6.923650854533013  22.349071981075667  57.68011983163051  -19.354627987639358  17.910638002039025  0.000000
1.705  0.000000  0.000000  0.000000  -33.93874568572536  8.300075380800505  28.990701433846972  51.926774478346644  6.0036711332775266  -6.657793198875392  22.186892632231128  57.93896763029099  -19.311121868594867  17.94082713641765  0.000000
1.736  0.000000  0.000000  0.000000  -34.146613438662015  8.366221126528428  29.048146133360987  51.98349538879774  6.12761700471933  -6.4471198906210425  22.107663791199066  58.05603909164322  -19.286790776311538  17.97421578601792  0.000000
1.767  0.000000  0.000000  0.000000  -34.32572958096706  8.405235707337427  29.078034884234864  52.02531060338705  6.220179676239567  -6.304443318104683  22.11972104041159  58.02698426478491  -19.278464419524287  18.006199447258986  0.000000
1.798  0.000000  0.000000  0.000000  -34.45281482579429  8.416177408604742  29.073117229912356  52.044423490473164  6.270059257179772  -6.245255488981513  22.22039376703419  57.860237513901474  -19.28618623696976  18.033758431744396  0.000000
1.829  0.000000  0.000000  0.000000  -34.5056099850298  8.395831587256048  29.020762693138973  52.03573440356679  6.2721752235279915  -6.279525928950326  22.400506526060656  57.567514588827585  -19.316691825904662  18.055150998506527  0.000000
1.8599999999999999  0.000000  0.000000  0.000000  -34.47087021997076  8.337548964908105  28.91367119792648  52.0021955725656  6.225894625520081  -6.409936154547274  22.648312636105594  57.15416006206351  -19.39003389031157  18.06935348538676  0.000000
1.891  0.000000  0.000000  0.000000  -34.35099165417121  8.231937643957902  28.75610839103952  51.95763061146736  6.134464896171397  -6.630898042668772  22.95081504357739  56.61757383801614  -19.53597674307494  18.075432928601597  0.000000
1.922  0.000000  0.000000  0.000000  -34.15637441724432  8.0702741223681  28.555459571656584  51.9206061738173  5.998981448941565  -6.931686446090839  23.294055816795467  55.9555901986601  -19.781827723760692  18.073990992382146  0.000000
1.953  0.000000  0.000000  0.000000  -33.90475054066752  7.8505308472628235  28.31209529728507  51.908139532423306  5.8174092275165386  -7.295149696462377  23.663625212566966  55.17582326064974  -20.13121079469517  18.06845822444532  0.000000
1.984  0.000000  0.000000  0.000000  -33.61381617730861  7.5799863418573326  28.008584297792794  51.92768187907505  5.585949850870112  -7.697165756220653  24.044627498769927  54.298659137886574  -20.55454007776327  18.068302043008874  0.000000
2.015  0.000000  0.000000  0.000000  -33.302590225745384  7.272836265715337  27.61898919379003  51.97760506692893  5.302268685343284  -8.107604573945943  24.422500968874857  53.35063567083328  -20.99578073253809  18.086380741259646  0.000000
